<svg width="169" height="40" viewBox="0 0 169 40" fill="none" xmlns="http://www.w3.org/2000/svg">
<path d="M18.1875 38H0.3125V36.375H5.3125V2.125H0.3125V0.5H29.125L29.4375 11.75H28.1875L27.3125 8.8125C27.2708 8.64583 27.2083 8.4375 27.125 8.1875C25.8333 4.14583 23.6875 2.125 20.6875 2.125H10.6875V17.75H23.5625V19.5625H10.6875V36.375H18.1875V38ZM37.875 24.6875C37.875 26.4792 38.0208 28.1042 38.3125 29.5625C39.3958 34.5625 42.0417 37.0625 46.25 37.0625C47.0417 37.0625 47.8125 36.9583 48.5625 36.75C52.3958 35.5417 54.3125 31.4375 54.3125 24.4375C54.3125 23.2292 54.25 22.125 54.125 21.125C53.375 15.2917 50.6875 12.375 46.0625 12.375C45.0625 12.375 44.1042 12.5417 43.1875 12.875C39.6458 14.2917 37.875 18.2292 37.875 24.6875ZM46.25 10.8125C49 10.8125 51.5208 11.5417 53.8125 13C57.6875 15.5417 59.625 19.4375 59.625 24.6875C59.625 28.5625 58.4167 31.7917 56 34.375C53.375 37.2083 50.0625 38.625 46.0625 38.625C43.2292 38.625 40.6458 37.8333 38.3125 36.25C34.4792 33.625 32.5625 29.6875 32.5625 24.4375C32.5625 20.6458 33.7917 17.4792 36.25 14.9375C38.9167 12.1875 42.25 10.8125 46.25 10.8125ZM84.973 30.64C84.973 33.072 83.9917 35.0987 82.029 36.72C80.109 38.2987 77.805 39.088 75.117 39.088C71.1917 39.088 68.3117 37.9147 66.477 35.568C64.6423 33.1787 63.725 29.9573 63.725 25.904C63.725 21.5947 64.685 17.776 66.605 14.448C67.5437 12.7413 68.8877 11.3973 70.637 10.416C72.3863 9.43467 74.4343 8.944 76.781 8.944C80.3223 8.944 82.8183 10.1387 84.269 12.528C84.8663 13.5093 85.165 14.6613 85.165 15.984C85.165 18.032 84.3117 19.568 82.605 20.592C81.9223 20.976 81.2823 21.168 80.685 21.168C80.1303 21.168 79.661 21.1467 79.277 21.104C78.9357 21.0187 78.4663 20.72 77.869 20.208C77.2717 19.696 76.973 18.992 76.973 18.096C77.0157 17.6267 77.3783 17.2427 78.061 16.944C78.701 16.56 79.021 15.8773 79.021 14.896C79.021 13.232 77.997 12.4 75.949 12.4C75.437 12.4 74.8183 12.6347 74.093 13.104C73.4103 13.5307 72.8343 14.1067 72.365 14.832C71.8957 15.5147 71.4477 16.624 71.021 18.16C70.637 19.6533 70.445 21.104 70.445 22.512C70.445 23.8773 70.4877 24.9227 70.573 25.648C70.701 26.3307 70.9357 27.2907 71.277 28.528C71.661 29.7227 72.3437 30.704 73.325 31.472C74.349 32.24 75.6077 32.624 77.101 32.624C78.893 32.624 80.4717 31.8773 81.837 30.384C82.3917 29.7867 82.8397 29.0613 83.181 28.208C83.3517 27.8667 83.565 27.696 83.821 27.696C84.205 27.696 84.4823 28.0587 84.653 28.784C84.8663 29.4667 84.973 30.0853 84.973 30.64ZM109.286 30.64C109.286 33.072 108.304 35.0987 106.342 36.72C104.422 38.2987 102.118 39.088 99.4295 39.088C95.5042 39.088 92.6242 37.9147 90.7895 35.568C88.9548 33.1787 88.0375 29.9573 88.0375 25.904C88.0375 21.5947 88.9975 17.776 90.9175 14.448C91.8562 12.7413 93.2002 11.3973 94.9495 10.416C96.6988 9.43467 98.7468 8.944 101.094 8.944C104.635 8.944 107.131 10.1387 108.582 12.528C109.179 13.5093 109.478 14.6613 109.478 15.984C109.478 18.032 108.624 19.568 106.918 20.592C106.235 20.976 105.595 21.168 104.998 21.168C104.443 21.168 103.974 21.1467 103.59 21.104C103.248 21.0187 102.779 20.72 102.182 20.208C101.584 19.696 101.286 18.992 101.286 18.096C101.328 17.6267 101.691 17.2427 102.374 16.944C103.014 16.56 103.333 15.8773 103.333 14.896C103.333 13.232 102.31 12.4 100.262 12.4C99.7495 12.4 99.1308 12.6347 98.4055 13.104C97.7228 13.5307 97.1468 14.1067 96.6775 14.832C96.2082 15.5147 95.7602 16.624 95.3335 18.16C94.9495 19.6533 94.7575 21.104 94.7575 22.512C94.7575 23.8773 94.8002 24.9227 94.8855 25.648C95.0135 26.3307 95.2482 27.2907 95.5895 28.528C95.9735 29.7227 96.6562 30.704 97.6375 31.472C98.6615 32.24 99.9202 32.624 101.414 32.624C103.206 32.624 104.784 31.8773 106.15 30.384C106.704 29.7867 107.152 29.0613 107.494 28.208C107.664 27.8667 107.878 27.696 108.134 27.696C108.518 27.696 108.795 28.0587 108.966 28.784C109.179 29.4667 109.286 30.0853 109.286 30.64ZM142.938 36.4375C143.188 36.4375 143.396 36.4583 143.562 36.5C144.188 36.5833 144.5 37.0833 144.5 38H135.688L135.25 31.625C134.792 32.7917 134.188 33.8542 133.438 34.8125C131.438 37.3542 128.875 38.625 125.75 38.625C119.833 38.5833 116.854 35 116.812 27.875V13H112V11.4375H121.5V28.8125C121.5 29.4792 121.542 30.1042 121.625 30.6875C122.167 34.1875 124.146 35.9375 127.562 35.9375C128.812 35.9375 130.021 35.5417 131.188 34.75C133.812 33 135.125 30.25 135.125 26.5V13H130V11.4375H139.812V36.4375H142.938ZM158.062 36.9375C160.938 36.9375 162.875 36.0625 163.875 34.3125C164.25 33.6875 164.438 33 164.438 32.25C164.438 30.5 163.167 29 160.625 27.75C160.083 27.4583 159.188 27.0417 157.938 26.5C154.521 25.0833 152.25 23.75 151.125 22.5C149.917 21.125 149.312 19.5208 149.312 17.6875C149.312 14.8125 150.896 12.7917 154.062 11.625C155.521 11.0833 157.104 10.8125 158.812 10.8125C161.562 10.8125 163.938 11.3958 165.938 12.5625C165.938 11.3542 166.229 10.6667 166.812 10.5C167.062 10.4583 167.333 10.4375 167.625 10.4375V18.25H166C165.917 14.4167 163.792 12.4792 159.625 12.4375C156.5 12.4375 154.562 13.3542 153.812 15.1875C153.604 15.6875 153.5 16.2083 153.5 16.75C153.5 18.5417 154.792 20.0625 157.375 21.3125C157.958 21.6042 158.875 22 160.125 22.5C163.5 23.875 165.75 25.1875 166.875 26.4375C168.083 27.7708 168.688 29.3542 168.688 31.1875C168.688 34.5625 166.896 36.8125 163.312 37.9375C161.938 38.3958 160.438 38.625 158.812 38.625C155.812 38.5833 153.208 37.8333 151 36.375C151 37.4583 150.729 38.0833 150.188 38.25C149.938 38.2917 149.646 38.3125 149.312 38.3125V28.8125H151.062C151.146 34.1875 153.479 36.8958 158.062 36.9375Z" fill="black"/>
</svg>
